HIERARCHY
ROOT Hips
{
	OFFSET 0.00000 0.00000 0.00000
	CHANNELS 6 Xposition Yposition Zposition Zrotation Yrotation Xrotation 
	JOINT LHipJoint
	{
		OFFSET 0 0 0
		CHANNELS 3 Zrotation Yrotation Xrotation
		JOINT LeftHip
		{
			OFFSET 1.55766 -1.60504 1.11378
			CHANNELS 3 Zrotation Yrotation Xrotation
			JOINT LeftKnee
			{
				OFFSET 2.29047 -6.29302 0.00000
				CHANNELS 3 Zrotation Yrotation Xrotation
				JOINT LeftAnkle
				{
					OFFSET 2.52265 -6.93093 0.00000
					CHANNELS 3 Zrotation Yrotation Xrotation
					JOINT LeftToe
					{
						OFFSET 0.17633 -0.48446 2.02656
						CHANNELS 3 Zrotation Yrotation Xrotation
						End Site
						{
							OFFSET 0.00000 -0.00000 1.04989
						}
					}
				}
			}
		}
	}
	JOINT RHipJoint
	{
		OFFSET 0 0 0
		CHANNELS 3 Zrotation Yrotation Xrotation
		JOINT RightHip
		{
			OFFSET -1.48599 -1.60504 1.11378
			CHANNELS 3 Zrotation Yrotation Xrotation
			JOINT RightKnee
			{
				OFFSET -2.27280 -6.24448 0.00000
				CHANNELS 3 Zrotation Yrotation Xrotation
				JOINT RightAnkle
				{
					OFFSET -2.50834 -6.89161 0.00000
					CHANNELS 3 Zrotation Yrotation Xrotation
					JOINT RightToe
					{
						OFFSET -0.26967 -0.74090 2.08741
						CHANNELS 3 Zrotation Yrotation Xrotation
						End Site
						{
							OFFSET -0.00000 -0.00000 1.10614
						}
					}
				}
			}
		}
	}
	JOINT lowerback
	{
		OFFSET 0 0 0
		CHANNELS 3 Zrotation Yrotation Xrotation
		JOINT Chest
		{
			OFFSET 0.06481 2.02437 -0.08472
			CHANNELS 3 Zrotation Yrotation Xrotation
			JOINT Chest2
			{
				OFFSET 0.00015 1.96711 0.18069
				CHANNELS 3 Zrotation Yrotation Xrotation
				JOINT lowerneck
				{
					OFFSET 0 0 0
					CHANNELS 3 Zrotation Yrotation Xrotation
					JOINT Neck
					{
						OFFSET -0.29961 1.68293 -0.13041
						CHANNELS 3 Zrotation Yrotation Xrotation
						JOINT Head
						{
							OFFSET 0.59697 1.61501 -0.14669
							CHANNELS 3 Zrotation Yrotation Xrotation
							End Site
							{
								OFFSET 0.22973 1.74906 -0.10148
							}
						}
					}
				}
				JOINT LeftCollar
				{
					OFFSET 0 0 0
					CHANNELS 3 Zrotation Yrotation Xrotation
					JOINT LeftShoulder
					{
						OFFSET 3.37968 1.02893 0.31147
CHANNELS 3 Zrotation Xrotation Yrotation
						JOINT LeftElbow
						{
OFFSET 0 -5.198070 -0.000000
CHANNELS 3 Zrotation Xrotation Yrotation
							JOINT LeftWrist
							{
OFFSET 0 -3.093700 -0.000000
CHANNELS 3 Zrotation Xrotation Yrotation
								JOINT lhand
								{
									OFFSET 0 0 0
CHANNELS 3 Zrotation Xrotation Yrotation
									JOINT LFingers
									{
OFFSET 0 -0.672630 -0.000000
CHANNELS 3 Zrotation Xrotation Yrotation
										End Site
										{
OFFSET 0 -0.542290 -0.000000
										}
									}
								}
								JOINT LThumb
								{
OFFSET 0 0.000000 0.000000
CHANNELS 3 Zrotation Xrotation Yrotation
									End Site
									{
OFFSET 0 -0.550570 0.550570
									}
								}
							}
						}
					}
				}
				JOINT RightCollar
				{
					OFFSET 0 0 0
					CHANNELS 3 Zrotation Yrotation Xrotation
					JOINT RightShoulder
					{
						OFFSET -3.38254 0.96355 -0.16120
CHANNELS 3 Zrotation Xrotation Yrotation
						JOINT RightElbow
						{
OFFSET 0 -5.452220 -0.000000
CHANNELS 3 Zrotation Xrotation Yrotation
							JOINT RightWrist
							{
OFFSET 0 -3.012840 -0.000000
CHANNELS 3 Zrotation Xrotation Yrotation
								JOINT rhand
								{
									OFFSET 0 0 0
CHANNELS 3 Zrotation Xrotation Yrotation
									JOINT RFingers
									{
OFFSET 0 -0.622300 -0.000000
CHANNELS 3 Zrotation Xrotation Yrotation
										End Site
										{
OFFSET 0 -0.501710 -0.000000
										}
									}
								}
								JOINT RThumb
								{
OFFSET 0 0.000000 0.000000
CHANNELS 3 Zrotation Xrotation Yrotation
									End Site
									{
OFFSET 0 -0.509370 0.509370
									}
								}
							}
						}
					}
				}
			}
		}
	}
}
MOTION
Frames: 6
Frame Time: 0.008333333333333333
3.006238 1.204838 18.325076 0.338097 -5.279310 -101.628881 0.000000 0.000000 0.000000 -11.893986 7.140880 2.539738 2.291053 9.447652 27.205994 -0.033438 -17.789136 24.905065 0.482652 -4.454807 -12.359945 0.000000 0.000000 0.000000 20.440689 -7.491418 3.174851 -2.134840 -9.141527 26.239057 -0.894591 12.162103 26.070155 -0.082013 1.845696 -5.079479 1.400820 0.059162 12.855682 -1.992017 0.165732 2.411819 -2.909516 0.051685 -4.661013 -29.833388 -9.988097 15.984030 44.458550 -21.471670 -5.378589 22.490708 -12.691141 5.403399 0.000000 0.000000 0.000000 16.745441 25.216697 -33.601339 15.979282 -25.492589 3.637053 -5.165188 11.629895 13.559052 0.000000 0.000000 0.000000 -7.125000 0.000000 0.000000 -21.952027 16.886018 -15.845800 0.000000 0.000000 0.000000 -12.883444 14.151469 -11.898586 -10.255052 -17.137543 -1.549269 -9.006412 57.380491 3.449170 0.000000 0.000000 0.000000 7.125000 0.000000 0.000000 14.270324 33.216722 4.234259
3.005862 1.203776 18.323615 0.327823 -5.243563 -101.522352 0.000000 0.000000 0.000000 -11.953396 7.103747 2.441970 2.284523 9.435132 27.166217 0.019310 -17.589684 25.088377 0.479538 -4.440776 -12.320191 0.000000 0.000000 0.000000 20.418110 -7.438158 3.037966 -2.143277 -9.158391 26.291969 -0.971629 11.757975 26.292913 -0.068362 1.687037 -4.641465 1.385084 0.070130 12.752508 -2.023116 0.176033 2.384162 -2.934065 0.056982 -4.632691 -29.823885 -10.007288 15.943229 44.455824 -21.517995 -5.311993 22.469979 -12.709815 5.449442 0.000000 0.000000 0.000000 16.797722 25.204053 -33.643816 15.974885 -25.486609 3.635162 -5.157294 11.631397 13.569594 0.000000 0.000000 0.000000 -7.125000 0.000000 0.000000 -21.945594 16.876244 -15.845529 0.000000 0.000000 0.000000 -12.839967 14.140279 -11.942063 -10.239285 -17.112961 -1.544626 -8.984480 57.365470 3.474115 0.000000 0.000000 0.000000 7.125000 0.000000 0.000000 14.291893 33.240324 4.232644
3.006130 1.203570 18.323539 0.314598 -5.101041 -101.589669 0.000000 0.000000 0.000000 -12.113064 7.124193 2.562156 2.273672 9.414253 27.100025 0.029594 -17.542074 25.111614 0.486132 -4.470692 -12.404723 0.000000 0.000000 0.000000 20.244758 -7.454626 3.084033 -2.151932 -9.175633 26.346316 -0.799642 12.671001 25.812002 -0.102979 2.068998 -5.696412 1.267187 0.090329 12.823648 -2.078416 0.184771 2.404306 -2.927572 0.062614 -4.650364 -29.801094 -10.027970 15.912680 44.445647 -21.554315 -5.266651 22.441326 -12.723158 5.478595 0.000000 0.000000 0.000000 16.841815 25.192866 -33.685137 15.977866 -25.490544 3.636448 -5.169942 11.616045 13.560333 0.000000 0.000000 0.000000 -7.125000 0.000000 0.000000 -21.954837 16.884758 -15.848805 0.000000 0.000000 0.000000 -12.812114 14.122396 -11.999489 -10.228343 -17.095995 -1.541391 -9.046969 57.365648 3.487423 0.000000 0.000000 0.000000 7.125000 0.000000 0.000000 14.244532 33.255841 4.212299
3.005545 1.204077 18.322558 0.302454 -5.064452 -101.567015 0.000000 0.000000 0.000000 -12.154601 7.129358 2.554663 2.267770 9.402841 27.063868 -0.000787 -17.666606 25.020156 0.487048 -4.475059 -12.417043 0.000000 0.000000 0.000000 20.209500 -7.439090 3.049019 -2.156530 -9.184859 26.375310 -0.799446 12.675170 25.814223 -0.099542 2.034394 -5.600680 1.170074 0.079696 12.796260 -2.039152 0.158883 2.401068 -2.826456 0.051282 -4.640634 -29.850875 -10.041198 15.833050 44.362361 -21.571343 -5.183927 22.375547 -12.716298 5.512673 0.000000 0.000000 0.000000 16.726052 25.209689 -33.594796 15.978151 -25.491009 3.636503 -5.173675 11.637785 13.566855 0.000000 0.000000 0.000000 -7.125000 0.000000 0.000000 -21.956459 16.878733 -15.853313 0.000000 0.000000 0.000000 -12.926070 14.098227 -11.905663 -10.224866 -17.090517 -1.540348 -9.069989 57.295193 3.465451 0.000000 0.000000 0.000000 7.125000 0.000000 0.000000 14.222545 33.235219 4.212760
3.005656 1.204115 18.320844 0.296806 -5.039011 -101.448820 0.000000 0.000000 0.000000 -12.200096 7.106852 2.440579 2.262353 9.392305 27.030504 0.018873 -17.597192 25.094433 0.492177 -4.497975 -12.482060 0.000000 0.000000 0.000000 20.190840 -7.406785 2.901341 -2.162433 -9.196580 26.412208 -0.863844 12.376078 26.031959 -0.087780 1.910705 -5.258989 0.600127 -0.078603 12.680014 -1.622514 -0.113328 2.280317 -2.019870 -0.076693 -4.717441 -30.477852 -9.799391 15.707673 44.038070 -21.311843 -4.830704 22.411453 -12.563297 5.540469 0.000000 0.000000 0.000000 15.582521 25.612235 -32.562465 15.962370 -25.469608 3.629811 -5.134477 11.912308 13.613109 0.000000 0.000000 0.000000 -7.125000 0.000000 0.000000 -21.925507 16.835600 -15.849776 0.000000 0.000000 0.000000 -13.928191 14.083519 -10.836858 -10.208267 -17.064652 -1.535464 -8.977694 57.059441 3.462847 0.000000 0.000000 0.000000 7.125000 0.000000 0.000000 14.295481 33.228997 4.237731
3.006286 1.203800 18.321000 0.290944 -4.949471 -101.418548 0.000000 0.000000 0.000000 -12.315547 7.089879 2.447126 2.253192 9.374583 26.974305 0.048925 -17.464083 25.171641 0.495079 -4.511004 -12.518933 0.000000 0.000000 0.000000 20.081841 -7.407051 2.837384 -2.171029 -9.213558 26.465719 -0.805137 12.712242 25.895469 -0.099640 2.035603 -5.604046 0.146271 -0.179191 12.643462 -1.354789 -0.297924 2.227341 -1.451701 -0.161498 -4.756724 -30.916049 -9.639756 15.590549 43.836817 -21.133606 -4.602982 22.449208 -12.457739 5.568027 0.000000 0.000000 0.000000 14.784205 25.853366 -31.841750 15.948678 -25.451040 3.623875 -5.104597 12.105978 13.651196 0.000000 0.000000 0.000000 -7.125000 0.000000 0.000000 -21.901608 16.800076 -15.848162 0.000000 0.000000 0.000000 -14.620485 14.047221 -10.123548 -10.202227 -17.055248 -1.533707 -8.882893 56.958000 3.448349 0.000000 0.000000 0.000000 7.125000 0.000000 0.000000 14.368265 33.211156 4.266967
